<svg width="32" height="32" viewBox="0 0 32 32" fill="none" xmlns="http://www.w3.org/2000/svg">
<mask id="mask0_2069_948" style="mask-type:alpha" maskUnits="userSpaceOnUse" x="0" y="0" width="32" height="32">
<rect width="32" height="32" fill="#D9D9D9"/>
</mask>
<g mask="url(#mask0_2069_948)">
<path d="M20.3 19.0334C19.6555 18.3889 19.3333 17.6 19.3333 16.6667C19.3333 15.7334 19.6555 14.9445 20.3 14.3C20.9444 13.6556 21.7333 13.3334 22.6666 13.3334C23.6 13.3334 24.3888 13.6556 25.0333 14.3C25.6777 14.9445 26 15.7334 26 16.6667C26 17.6 25.6777 18.3889 25.0333 19.0334C24.3888 19.6778 23.6 20 22.6666 20C21.7333 20 20.9444 19.6778 20.3 19.0334ZM16 26.6667V24.8C16 24.2667 16.1388 23.7723 16.4166 23.3167C16.6944 22.8612 17.0888 22.5334 17.6 22.3334C18.4 22 19.2277 21.75 20.0833 21.5834C20.9388 21.4167 21.8 21.3334 22.6666 21.3334C23.5333 21.3334 24.3944 21.4167 25.25 21.5834C26.1055 21.75 26.9333 22 27.7333 22.3334C28.2444 22.5334 28.6388 22.8612 28.9166 23.3167C29.1944 23.7723 29.3333 24.2667 29.3333 24.8V26.6667H16ZM9.56663 14.4334C8.52218 13.3889 7.99996 12.1334 7.99996 10.6667C7.99996 9.20004 8.52218 7.94449 9.56663 6.90004C10.6111 5.8556 11.8666 5.33337 13.3333 5.33337C14.8 5.33337 16.0555 5.8556 17.1 6.90004C18.1444 7.94449 18.6666 9.20004 18.6666 10.6667C18.6666 12.1334 18.1444 13.3889 17.1 14.4334C16.0555 15.4778 14.8 16 13.3333 16C11.8666 16 10.6111 15.4778 9.56663 14.4334ZM2.66663 26.6667V22.9334C2.66663 22.1778 2.85551 21.4834 3.23329 20.85C3.61107 20.2167 4.13329 19.7334 4.79996 19.4C6.13329 18.7334 7.51663 18.2223 8.94996 17.8667C10.3833 17.5112 11.8444 17.3334 13.3333 17.3334C14.1111 17.3334 14.8888 17.4 15.6666 17.5334C16.4444 17.6667 17.2222 17.8223 18 18L15.7333 20.2667C15.3333 20.1556 14.9333 20.0834 14.5333 20.05C14.1333 20.0167 13.7333 20 13.3333 20C12.0444 20 10.7833 20.1556 9.54996 20.4667C8.31663 20.7778 7.13329 21.2223 5.99996 21.8C5.77774 21.9112 5.61107 22.0667 5.49996 22.2667C5.38885 22.4667 5.33329 22.6889 5.33329 22.9334V24H13.3333V26.6667H2.66663ZM15.2166 12.55C15.7388 12.0278 16 11.4 16 10.6667C16 9.93337 15.7388 9.3056 15.2166 8.78337C14.6944 8.26115 14.0666 8.00004 13.3333 8.00004C12.6 8.00004 11.9722 8.26115 11.45 8.78337C10.9277 9.3056 10.6666 9.93337 10.6666 10.6667C10.6666 11.4 10.9277 12.0278 11.45 12.55C11.9722 13.0723 12.6 13.3334 13.3333 13.3334C14.0666 13.3334 14.6944 13.0723 15.2166 12.55Z" fill="#FEA3E0"/>
</g>
</svg>
