<svg width="32" height="32" viewBox="0 0 32 32" fill="none" xmlns="http://www.w3.org/2000/svg">
<mask id="mask0_2226_465" style="mask-type:alpha" maskUnits="userSpaceOnUse" x="0" y="0" width="32" height="32">
<rect width="32" height="32" fill="#D9D9D9"/>
</mask>
<g mask="url(#mask0_2226_465)">
<path d="M20.4666 18.2C19.8819 17.6153 19.5896 16.9077 19.5896 16.077C19.5896 15.2461 19.8819 14.5383 20.4666 13.9537C21.0512 13.3692 21.7589 13.077 22.5896 13.077C23.4205 13.077 24.1281 13.3692 24.7126 13.9537C25.2972 14.5383 25.5896 15.2461 25.5896 16.077C25.5896 16.9077 25.2972 17.6153 24.7126 18.2C24.1281 18.7847 23.4205 19.077 22.5896 19.077C21.7589 19.077 21.0512 18.7847 20.4666 18.2ZM16.2562 25.7437V24.2103C16.2562 23.7368 16.3773 23.302 16.6196 22.906C16.8618 22.51 17.2057 22.2251 17.6512 22.0513C18.4268 21.7265 19.2292 21.4828 20.0586 21.3203C20.8879 21.1581 21.7316 21.077 22.5896 21.077C23.4305 21.077 24.2659 21.1581 25.0959 21.3203C25.9259 21.4828 26.7367 21.7265 27.5282 22.0513C27.9738 22.2251 28.3176 22.51 28.5596 22.906C28.8018 23.302 28.9229 23.7368 28.9229 24.2103V25.7437H16.2562ZM9.77824 14.2217C8.86624 13.3099 8.41024 12.2103 8.41024 10.923C8.41024 9.6359 8.86624 8.53635 9.77824 7.62435C10.69 6.71235 11.7896 6.25635 13.0769 6.25635C14.364 6.25635 15.4636 6.71235 16.3756 7.62435C17.2876 8.53635 17.7436 9.6359 17.7436 10.923C17.7436 12.2103 17.2876 13.3099 16.3756 14.2217C15.4636 15.1337 14.364 15.5897 13.0769 15.5897C11.7896 15.5897 10.69 15.1337 9.77824 14.2217ZM3.0769 25.7437V22.7793C3.0769 22.1133 3.25079 21.5011 3.59857 20.9427C3.94657 20.3842 4.4239 19.964 5.03057 19.682C6.28702 19.0496 7.59113 18.5683 8.9429 18.2383C10.2947 17.9086 11.6727 17.7437 13.0769 17.7437C13.7349 17.7437 14.393 17.7911 15.0512 17.886C15.7092 17.9809 16.3673 18.0958 17.0256 18.2307C16.7418 18.5187 16.458 18.8068 16.1742 19.095L15.3229 19.959C14.9487 19.8692 14.5743 19.8109 14.1999 19.784C13.8255 19.7571 13.4511 19.7437 13.0769 19.7437C11.8307 19.7437 10.6059 19.8863 9.40257 20.1717C8.19902 20.4572 7.04768 20.8889 5.94857 21.4667C5.69213 21.6033 5.48268 21.7823 5.32024 22.0037C5.15802 22.2252 5.0769 22.4838 5.0769 22.7793V23.7437H13.0769V25.7437H3.0769ZM14.9602 12.8063C15.4825 12.2841 15.7436 11.6563 15.7436 10.923C15.7436 10.1897 15.4825 9.5619 14.9602 9.03968C14.438 8.51746 13.8102 8.25635 13.0769 8.25635C12.3436 8.25635 11.7158 8.51746 11.1936 9.03968C10.6713 9.5619 10.4102 10.1897 10.4102 10.923C10.4102 11.6563 10.6713 12.2841 11.1936 12.8063C11.7158 13.3286 12.3436 13.5897 13.0769 13.5897C13.8102 13.5897 14.438 13.3286 14.9602 12.8063Z" fill="white"/>
</g>
</svg>
