<svg width="32" height="32" viewBox="0 0 32 32" fill="none" xmlns="http://www.w3.org/2000/svg">
<mask id="mask0_2014_1060" style="mask-type:alpha" maskUnits="userSpaceOnUse" x="0" y="0" width="32" height="32">
<rect width="32" height="32" fill="#D9D9D9"/>
</mask>
<g mask="url(#mask0_2014_1060)">
<path d="M17.3333 14.6666H26.6C26.2666 12.2222 25.25 10.15 23.55 8.44996C21.85 6.74996 19.7777 5.73329 17.3333 5.39996V14.6666ZM14.6666 26.6V5.39996C11.9777 5.73329 9.74996 6.90551 7.98329 8.91663C6.21663 10.9277 5.33329 13.2888 5.33329 16C5.33329 18.7111 6.21663 21.0722 7.98329 23.0833C9.74996 25.0944 11.9777 26.2666 14.6666 26.6ZM17.3333 26.6C19.7777 26.2888 21.8555 25.2777 23.5666 23.5666C25.2777 21.8555 26.2888 19.7777 26.6 17.3333H17.3333V26.6ZM16 29.3333C14.1555 29.3333 12.4222 28.9833 10.8 28.2833C9.17774 27.5833 7.76663 26.6333 6.56663 25.4333C5.36663 24.2333 4.41663 22.8222 3.71663 21.2C3.01663 19.5777 2.66663 17.8444 2.66663 16C2.66663 14.1555 3.01663 12.4222 3.71663 10.8C4.41663 9.17774 5.36663 7.76663 6.56663 6.56663C7.76663 5.36663 9.17774 4.41663 10.8 3.71663C12.4222 3.01663 14.1555 2.66663 16 2.66663C17.8444 2.66663 19.5722 3.01663 21.1833 3.71663C22.7944 4.41663 24.2055 5.37218 25.4166 6.58329C26.6277 7.7944 27.5833 9.20551 28.2833 10.8166C28.9833 12.4277 29.3333 14.1555 29.3333 16C29.3333 17.8222 28.9833 19.5444 28.2833 21.1666C27.5833 22.7888 26.6333 24.2055 25.4333 25.4166C24.2333 26.6277 22.8222 27.5833 21.2 28.2833C19.5777 28.9833 17.8444 29.3333 16 29.3333Z" fill="#FEA3E0"/>
</g>
</svg>
