<svg width="32" height="32" viewBox="0 0 32 32" fill="none" xmlns="http://www.w3.org/2000/svg">
<mask id="mask0_2069_737" style="mask-type:alpha" maskUnits="userSpaceOnUse" x="0" y="0" width="32" height="32">
<rect width="32" height="32" fill="#D9D9D9"/>
</mask>
<g mask="url(#mask0_2069_737)">
<path d="M17 15H26.6257C26.3693 12.4274 25.344 10.2419 23.55 8.44371C21.756 6.64526 19.5727 5.62215 17 5.37437V15ZM15 26.6257V5.37437C12.2514 5.62215 9.95304 6.76015 8.10504 8.78838C6.25726 10.8166 5.33337 13.2205 5.33337 16C5.33337 18.7796 6.25726 21.1835 8.10504 23.2117C9.95304 25.2399 12.2514 26.3779 15 26.6257ZM17 26.6257C19.5727 26.3915 21.7595 25.3718 23.5604 23.5667C25.3613 21.7616 26.383 19.5727 26.6257 17H17V26.6257ZM16.0024 28.6667C14.2504 28.6667 12.6036 28.3343 11.062 27.6694C9.52048 27.0045 8.1796 26.1022 7.03937 24.9624C5.89915 23.8226 4.99637 22.4823 4.33104 20.9414C3.66593 19.4005 3.33337 17.7542 3.33337 16.0024C3.33337 14.2504 3.66582 12.6036 4.33071 11.062C4.9956 9.52048 5.89793 8.1796 7.03771 7.03937C8.17749 5.89915 9.51782 4.99637 11.0587 4.33104C12.5996 3.66593 14.2459 3.33337 15.9977 3.33337C17.7497 3.33337 19.3928 3.66626 20.927 4.33204C22.4613 4.99782 23.8018 5.90426 24.9487 7.05137C26.0958 8.19826 27.0023 9.53837 27.668 11.0717C28.3338 12.6048 28.6667 14.2489 28.6667 16.004C28.6667 17.738 28.3343 19.375 27.6694 20.915C27.0045 22.4548 26.1022 23.7995 24.9624 24.949C23.8226 26.0986 22.4823 27.0056 20.9414 27.67C19.4005 28.3345 17.7542 28.6667 16.0024 28.6667Z" fill="white"/>
</g>
</svg>
