<svg width="16" height="16" viewBox="0 0 16 16" fill="none" xmlns="http://www.w3.org/2000/svg">
<mask id="mask0_2211_10" style="mask-type:alpha" maskUnits="userSpaceOnUse" x="0" y="0" width="16" height="16">
<rect width="16" height="16" fill="#D9D9D9"/>
</mask>
<g mask="url(#mask0_2211_10)">
<path d="M10.2002 11.1334L11.1335 10.2001L8.66683 7.7334V4.66674H7.3335V8.26674L10.2002 11.1334ZM8.00016 14.6667C7.07794 14.6667 6.21127 14.4917 5.40016 14.1417C4.58905 13.7917 3.8835 13.3167 3.2835 12.7167C2.6835 12.1167 2.2085 11.4112 1.8585 10.6001C1.5085 9.78896 1.3335 8.92229 1.3335 8.00007C1.3335 7.07785 1.5085 6.21118 1.8585 5.40007C2.2085 4.58896 2.6835 3.8834 3.2835 3.2834C3.8835 2.6834 4.58905 2.2084 5.40016 1.8584C6.21127 1.5084 7.07794 1.3334 8.00016 1.3334C8.92238 1.3334 9.78905 1.5084 10.6002 1.8584C11.4113 2.2084 12.1168 2.6834 12.7168 3.2834C13.3168 3.8834 13.7918 4.58896 14.1418 5.40007C14.4918 6.21118 14.6668 7.07785 14.6668 8.00007C14.6668 8.92229 14.4918 9.78896 14.1418 10.6001C13.7918 11.4112 13.3168 12.1167 12.7168 12.7167C12.1168 13.3167 11.4113 13.7917 10.6002 14.1417C9.78905 14.4917 8.92238 14.6667 8.00016 14.6667ZM8.00016 13.3334C9.47794 13.3334 10.7363 12.814 11.7752 11.7751C12.8141 10.7362 13.3335 9.47785 13.3335 8.00007C13.3335 6.52229 12.8141 5.26396 11.7752 4.22507C10.7363 3.18618 9.47794 2.66674 8.00016 2.66674C6.52238 2.66674 5.26405 3.18618 4.22516 4.22507C3.18627 5.26396 2.66683 6.52229 2.66683 8.00007C2.66683 9.47785 3.18627 10.7362 4.22516 11.7751C5.26405 12.814 6.52238 13.3334 8.00016 13.3334Z" fill="#8C79EF"/>
</g>
</svg>
