<svg width="393" height="471" viewBox="0 0 393 471" fill="none" xmlns="http://www.w3.org/2000/svg">
<path d="M302.895 287.728C82.9325 173.862 30.4768 -52.8639 140.293 -265.005C250.11 -477.146 465.013 -564.233 684.975 -450.367C904.937 -336.502 957.899 -110.754 848.082 101.388C738.266 313.529 522.857 401.593 302.895 287.728ZM386.396 126.422C485.134 177.535 577.64 111.38 638.874 -6.91079C700.108 -125.202 700.213 -237.949 601.474 -289.062C502.736 -340.175 410.736 -274.997 349.502 -156.707C288.268 -38.416 287.657 75.3093 386.396 126.422Z" fill="#8C79EF"/>
<path d="M369.861 164.347C476.424 219.51 619.454 154.806 689.328 19.8267C759.201 -115.153 729.458 -269.294 622.895 -324.458C516.332 -379.621 373.302 -314.917 303.429 -179.937C233.555 -44.9574 263.298 109.184 369.861 164.347Z" fill="#FEA3E0"/>
<path d="M396.499 112.896C481.749 157.026 595.577 106.415 650.741 -0.148249C705.904 -106.711 681.513 -228.873 596.263 -273.003C511.012 -317.134 397.184 -266.522 342.021 -159.959C286.858 -53.3962 311.249 68.7651 396.499 112.896Z" fill="#EB4C15"/>
<path d="M423.132 61.4403C487.07 94.5382 571.695 58.0196 612.148 -20.1262C652.6 -98.272 633.562 -188.453 569.624 -221.551C505.687 -254.649 421.062 -218.13 380.609 -139.984C340.156 -61.8383 359.194 28.3425 423.132 61.4403Z" fill="#DBF58A"/>
</svg>
