<svg width="393" height="335" viewBox="0 0 393 335" fill="none" xmlns="http://www.w3.org/2000/svg">
<path d="M-80.1362 116.677C129.862 44.1567 308.033 145.669 375.835 342.005C443.637 538.341 365.764 727.261 155.765 799.782C-54.2331 872.302 -232.091 771.695 -299.893 575.359C-367.695 379.023 -290.135 189.197 -80.1362 116.677ZM-28.5816 265.965C-122.847 298.518 -137.968 396.906 -100.161 506.384C-62.3547 615.862 9.94472 683.047 104.211 650.494C198.477 617.94 213.91 520.457 176.103 410.979C138.296 301.502 65.6843 233.411 -28.5816 265.965Z" fill="#8C79EF"/>
<path d="M-42.6312 232.841C-144.367 267.975 -191.868 397.726 -148.728 522.649C-105.587 647.573 11.8589 720.362 113.595 685.229C215.331 650.095 262.832 520.344 219.691 395.421C176.551 270.497 59.1049 197.708 -42.6312 232.841Z" fill="#FEA3E0"/>
<path d="M-26.1889 280.462C-107.578 308.568 -145.947 411.304 -111.888 509.927C-77.8297 608.551 15.7589 665.717 97.1477 637.61C178.537 609.503 216.905 506.768 182.847 408.144C148.788 309.521 55.1999 252.355 -26.1889 280.462Z" fill="#EB4C15"/>
<path d="M-9.74111 328.081C-70.7826 349.161 -100.019 424.88 -75.0433 497.203C-50.0672 569.527 19.6637 611.068 80.7052 589.988C141.747 568.909 170.983 493.19 146.007 420.866C121.031 348.543 51.3004 307.001 -9.74111 328.081Z" fill="#DBF58A"/>
</svg>
