<svg width="128" height="20" viewBox="0 0 128 20" fill="none" xmlns="http://www.w3.org/2000/svg">
<path d="M7.66454 20C2.88747 20 0 16.5817 0 11.9745C0 7.3673 2.9724 3.97028 7.66454 3.97028C11.2951 3.97028 14.2887 6.09342 14.6072 9.87261H10.1699C10.0212 8.34395 9.10828 7.47346 7.68577 7.47346C5.56263 7.47346 4.54352 9.42675 4.54352 11.9745C4.54352 14.5435 5.5414 16.4968 7.66454 16.4968C9.08705 16.4968 10.0212 15.6263 10.2123 13.949H14.6497C14.3524 17.8769 11.3163 20 7.66454 20ZM20.2405 13.9066C20.2405 15.7962 20.8987 16.327 22.5335 16.327C23.68 16.327 24.9114 16.0722 26.1003 15.6688H26.1852V19.1932C24.5505 19.7452 23.1068 20 21.6418 20C17.8626 20 15.8881 18.3015 15.8881 14.3524V4.28875H20.2405V13.9066ZM50.1332 20C45.3562 20 42.4687 16.5817 42.4687 11.9745C42.4687 7.3673 45.4411 3.97028 50.1332 3.97028C53.7638 3.97028 56.7574 6.09342 57.0759 9.87261H52.6385C52.4899 8.34395 51.577 7.47346 50.1545 7.47346C48.0313 7.47346 47.0122 9.42675 47.0122 11.9745C47.0122 14.5435 48.0101 16.4968 50.1332 16.4968C51.5557 16.4968 52.4899 15.6263 52.681 13.949H57.1184C56.8211 17.8769 53.785 20 50.1332 20ZM58.3567 19.6815V4.28875H62.7091V8.34395L62.6454 10.1699H62.7304L63.6009 8.95966L67.5711 4.28875H72.7728L66.9979 10.8493L72.8153 19.6815H67.5924L63.983 14.2463L62.7091 15.6476V19.6815H58.3567ZM79.1526 20C74.2481 20 71.4031 16.6879 71.4031 11.9745C71.4031 7.26115 74.2481 3.97028 79.1526 3.97028C83.8872 3.97028 86.4987 7.23991 86.3288 12.9936H76.0104C76.2439 15.3291 77.1993 16.6667 79.0677 16.6667C80.5539 16.6667 81.5093 15.8811 81.8065 14.4374H86.2014C85.6282 17.9193 82.9743 20 79.1526 20ZM76.159 9.91507H81.8702C81.5942 8.19533 80.6176 7.30361 79.1526 7.30361C77.6239 7.30361 76.5836 8.25902 76.159 9.91507ZM87.6436 19.6815V4.28875H93.9705C98.8538 4.28875 101.741 7.00637 101.741 11.9745C101.741 16.9214 98.8538 19.6815 93.9705 19.6815H87.6436ZM93.8219 16.242C95.7964 16.242 97.3251 14.7983 97.3251 11.9745C97.3251 9.15074 95.7964 7.72824 93.8219 7.72824H91.996V16.242H93.8219ZM106.564 19.6815V4.28875H110.916V19.6815H106.564ZM106.564 3.26964V0H110.916V3.26964H106.564ZM112.592 4.28875H116.732V6.39066H116.817C118.006 4.75584 119.577 3.97028 121.679 3.97028C124.949 3.97028 126.647 5.8811 126.647 9.74522V19.6815H122.295V10.4246C122.295 8.40764 121.573 7.57962 120.044 7.57962C118.155 7.57962 116.945 8.81104 116.945 10.7643V19.6815H112.592V4.28875Z" fill="#06050A"/>
<path d="M34.0286 20C29.2515 20 26.3428 16.5817 26.3428 11.9745C26.3428 7.36727 29.2515 3.97025 34.0286 3.97025C38.8056 3.97025 41.7143 7.36727 41.7143 11.9745C41.7143 16.5817 38.8056 20 34.0286 20ZM34.0286 16.4968C36.1729 16.4968 37.1708 14.5435 37.1708 11.9745C37.1708 9.40549 36.1729 7.47343 34.0286 7.47343C31.8842 7.47343 30.8863 9.40549 30.8863 11.9745C30.8863 14.5435 31.8842 16.4968 34.0286 16.4968Z" fill="#8C79EF"/>
<path d="M33.9597 20C29.1826 20 26.2739 16.5817 26.2739 11.9745C26.2739 7.36727 29.1826 3.97025 33.9597 3.97025C38.7368 3.97025 41.6455 7.36727 41.6455 11.9745C41.6455 16.5817 38.7368 20 33.9597 20ZM33.9597 16.4968C36.1041 16.4968 37.102 14.5435 37.102 11.9745C37.102 9.40549 36.1041 7.47343 33.9597 7.47343C31.8153 7.47343 30.8175 9.40549 30.8175 11.9745C30.8175 14.5435 31.8153 16.4968 33.9597 16.4968Z" fill="#8C79EF"/>
<path d="M34.0127 17.293C36.327 17.293 38.2031 14.9166 38.2031 11.9852C38.2031 9.05375 36.327 6.67734 34.0127 6.67734C31.6984 6.67734 29.8223 9.05375 29.8223 11.9852C29.8223 14.9166 31.6984 17.293 34.0127 17.293Z" fill="#FEA3E0"/>
<path d="M34.0127 16.1755C35.8642 16.1755 37.3651 14.2994 37.3651 11.9851C37.3651 9.67082 35.8642 7.79471 34.0127 7.79471C32.1613 7.79471 30.6604 9.67082 30.6604 11.9851C30.6604 14.2994 32.1613 16.1755 34.0127 16.1755Z" fill="#EB4C15"/>
<path d="M34.0128 15.0581C35.4014 15.0581 36.527 13.6823 36.527 11.9852C36.527 10.288 35.4014 8.9122 34.0128 8.9122C32.6242 8.9122 31.4985 10.288 31.4985 11.9852C31.4985 13.6823 32.6242 15.0581 34.0128 15.0581Z" fill="#DBF58A"/>
<path d="M34.2783 12.0307L40.6934 5.61572" stroke="#06050A" stroke-linecap="round"/>
<path d="M34.0127 11.9851V2.96176" stroke="#06050A" stroke-width="2" stroke-linecap="round"/>
</svg>
