<svg width="27" height="27" viewBox="0 0 27 27" fill="none" xmlns="http://www.w3.org/2000/svg">
<path d="M14.6667 12H23.9333C23.6 9.55556 22.5833 7.48333 20.8833 5.78333C19.1833 4.08333 17.1111 3.06667 14.6667 2.73333V12ZM12 23.9333V2.73333C9.31111 3.06667 7.08333 4.23889 5.31667 6.25C3.55 8.26111 2.66667 10.6222 2.66667 13.3333C2.66667 16.0444 3.55 18.4056 5.31667 20.4167C7.08333 22.4278 9.31111 23.6 12 23.9333ZM14.6667 23.9333C17.1111 23.6222 19.1889 22.6111 20.9 20.9C22.6111 19.1889 23.6222 17.1111 23.9333 14.6667H14.6667V23.9333ZM13.3333 26.6667C11.4889 26.6667 9.75556 26.3167 8.13333 25.6167C6.51111 24.9167 5.1 23.9667 3.9 22.7667C2.7 21.5667 1.75 20.1556 1.05 18.5333C0.35 16.9111 0 15.1778 0 13.3333C0 11.4889 0.35 9.75556 1.05 8.13333C1.75 6.51111 2.7 5.1 3.9 3.9C5.1 2.7 6.51111 1.75 8.13333 1.05C9.75556 0.35 11.4889 0 13.3333 0C15.1778 0 16.9056 0.35 18.5167 1.05C20.1278 1.75 21.5389 2.70556 22.75 3.91667C23.9611 5.12778 24.9167 6.53889 25.6167 8.15C26.3167 9.76111 26.6667 11.4889 26.6667 13.3333C26.6667 15.1556 26.3167 16.8778 25.6167 18.5C24.9167 20.1222 23.9667 21.5389 22.7667 22.75C21.5667 23.9611 20.1556 24.9167 18.5333 25.6167C16.9111 26.3167 15.1778 26.6667 13.3333 26.6667Z" fill="#FEA3E0"/>
</svg>
