<svg width="26" height="26" viewBox="0 0 26 26" fill="none" xmlns="http://www.w3.org/2000/svg">
<path d="M9.451 25.3333L8.94333 21.2717C8.58622 21.1521 8.22 20.9847 7.84467 20.7693C7.46956 20.5538 7.13411 20.323 6.83833 20.077L3.07667 21.6667L0 16.3333L3.25367 13.8743C3.223 13.6761 3.20122 13.477 3.18833 13.277C3.17544 13.077 3.169 12.8778 3.169 12.6793C3.169 12.4898 3.17544 12.2971 3.18833 12.1013C3.20122 11.9056 3.223 11.6914 3.25367 11.459L0 9L3.07667 3.69233L6.82533 5.26933C7.14689 5.01467 7.49011 4.78178 7.855 4.57067C8.21989 4.35956 8.57844 4.18989 8.93067 4.06167L9.451 0H15.605L16.1127 4.07433C16.5127 4.21967 16.8746 4.38933 17.1983 4.58333C17.5223 4.77733 17.8493 5.006 18.1793 5.26933L21.9793 3.69233L25.056 9L21.751 11.4973C21.7988 11.7127 21.8249 11.914 21.8293 12.1013C21.8336 12.2884 21.8357 12.4769 21.8357 12.6667C21.8357 12.8478 21.8313 13.032 21.8227 13.2193C21.8142 13.4064 21.7836 13.6206 21.7307 13.8617L25.01 16.3333L21.933 21.6667L18.1793 20.064C17.8493 20.3273 17.5126 20.5602 17.169 20.7627C16.8254 20.9653 16.4733 21.1308 16.1127 21.259L15.605 25.3333H9.451ZM11.1947 23.3333H13.8153L14.2947 19.7617C14.9751 19.5839 15.5969 19.3313 16.16 19.004C16.7233 18.6764 17.2666 18.2554 17.7897 17.741L21.1023 19.1333L22.4153 16.8667L19.523 14.6873C19.6341 14.342 19.7097 14.0034 19.7497 13.6717C19.7899 13.3401 19.81 13.0051 19.81 12.6667C19.81 12.3196 19.7899 11.9846 19.7497 11.6617C19.7097 11.3386 19.6341 11.0086 19.523 10.6717L22.4407 8.46667L21.128 6.2L17.7767 7.61267C17.3304 7.13578 16.7959 6.71445 16.173 6.34867C15.5499 5.98289 14.9196 5.72389 14.282 5.57167L13.8613 2H11.2153L10.774 5.559C10.0938 5.71967 9.46567 5.96578 8.88967 6.29733C8.31344 6.62911 7.76378 7.05645 7.24067 7.57933L3.928 6.2L2.61533 8.46667L5.49467 10.6127C5.38355 10.9291 5.30578 11.2582 5.26133 11.6C5.21689 11.9418 5.19467 12.3016 5.19467 12.6793C5.19467 13.0264 5.21689 13.3667 5.26133 13.7C5.30578 14.0333 5.37933 14.3624 5.482 14.6873L2.61533 16.8667L3.928 19.1333L7.228 17.7333C7.734 18.2529 8.275 18.6786 8.851 19.0103C9.42722 19.3419 10.064 19.5966 10.7613 19.7743L11.1947 23.3333ZM12.5433 16.6667C13.6527 16.6667 14.5967 16.2773 15.3753 15.4987C16.154 14.72 16.5433 13.776 16.5433 12.6667C16.5433 11.5573 16.154 10.6133 15.3753 9.83467C14.5967 9.056 13.6527 8.66667 12.5433 8.66667C11.4202 8.66667 10.4728 9.056 9.701 9.83467C8.92922 10.6133 8.54333 11.5573 8.54333 12.6667C8.54333 13.776 8.92922 14.72 9.701 15.4987C10.4728 16.2773 11.4202 16.6667 12.5433 16.6667Z" fill="white"/>
</svg>
