<svg width="281" height="322" viewBox="0 0 281 322" fill="none" xmlns="http://www.w3.org/2000/svg">
<path d="M140.289 321.483C53.0929 321.483 0 259.089 0 174.993C0 90.8974 53.0929 28.8911 140.289 28.8911C227.485 28.8911 280.578 90.8974 280.578 174.993C280.578 259.089 227.485 321.483 140.289 321.483ZM140.289 257.539C179.431 257.539 197.645 221.886 197.645 174.993C197.645 128.101 179.431 92.8351 140.289 92.8351C101.148 92.8351 82.9334 128.101 82.9334 174.993C82.9334 221.886 101.148 257.539 140.289 257.539Z" fill="#8C79EF"/>
<path d="M141.258 272.072C183.501 272.072 217.746 228.695 217.746 175.187C217.746 121.679 183.501 78.3024 141.258 78.3024C99.0148 78.3024 64.7699 121.679 64.7699 175.187C64.7699 228.695 99.0148 272.072 141.258 272.072Z" fill="#FEA3E0"/>
<path d="M141.258 251.675C175.053 251.675 202.449 217.43 202.449 175.187C202.449 132.944 175.053 98.6992 141.258 98.6992C107.464 98.6992 80.0679 132.944 80.0679 175.187C80.0679 217.43 107.464 251.675 141.258 251.675Z" fill="#EB4C15"/>
<path d="M141.258 231.278C166.604 231.278 187.151 206.165 187.151 175.187C187.151 144.209 166.604 119.096 141.258 119.096C115.912 119.096 95.3652 144.209 95.3652 175.187C95.3652 206.165 115.912 231.278 141.258 231.278Z" fill="#DBF58A"/>
<path d="M146.102 176.018L263.197 58.9254" stroke="#06050A" stroke-width="13.9775" stroke-linecap="round"/>
<path d="M141.258 175.187V10.4832" stroke="#06050A" stroke-width="20.9663" stroke-linecap="round"/>
</svg>
