<svg width="81" height="92" viewBox="0 0 81 92" fill="none" xmlns="http://www.w3.org/2000/svg">
<path d="M40.031 92C15.1499 92 0 74.1445 0 50.0785C0 26.0124 15.1499 8.26788 40.031 8.26788C64.9122 8.26788 80.062 26.0124 80.062 50.0785C80.062 74.1445 64.9122 92 40.031 92ZM40.031 73.7009C51.1999 73.7009 56.3973 63.4978 56.3973 50.0785C56.3973 36.6592 51.1999 26.567 40.031 26.567C28.8622 26.567 23.6647 36.6592 23.6647 50.0785C23.6647 63.4978 28.8622 73.7009 40.031 73.7009Z" fill="#EB4C15"/>
<path d="M40.3075 77.8598C52.3615 77.8598 62.1332 65.4465 62.1332 50.1339C62.1332 34.8214 52.3615 22.4081 40.3075 22.4081C28.2536 22.4081 18.4819 34.8214 18.4819 50.1339C18.4819 65.4465 28.2536 77.8598 40.3075 77.8598Z" fill="#FEA3E0"/>
<path d="M40.3075 72.0228C49.9507 72.0228 57.768 62.2229 57.768 50.134C57.768 38.0451 49.9507 28.2451 40.3075 28.2451C30.6644 28.2451 22.847 38.0451 22.847 50.134C22.847 62.2229 30.6644 72.0228 40.3075 72.0228Z" fill="#8C79EF"/>
<path d="M40.3075 66.1857C47.5399 66.1857 53.4028 58.9991 53.4028 50.1339C53.4028 41.2688 47.5399 34.0822 40.3075 34.0822C33.0751 34.0822 27.2122 41.2688 27.2122 50.1339C27.2122 58.9991 33.0751 66.1857 40.3075 66.1857Z" fill="#DBF58A"/>
<path d="M41.6898 50.3718L75.1024 16.8629" stroke="#06050A" stroke-width="4" stroke-linecap="round"/>
<path d="M40.3075 50.134V3" stroke="#06050A" stroke-width="6" stroke-linecap="round"/>
</svg>
